<svg xmlns="http://www.w3.org/2000/svg" xmlns:xlink="http://www.w3.org/1999/xlink" contentStyleType="text/css" data-diagram-type="DESCRIPTION" height="538px" preserveAspectRatio="none" style="width:805px;height:538px;background:#FFFFFF;" version="1.1" viewBox="0 0 805 538" width="805px" zoomAndPan="magnify"><title>Todos App &#8209; Component Diagram</title><defs/><g><g class="title" data-source-line="1"><text fill="#000000" font-family="sans-serif" font-size="14" font-weight="bold" lengthAdjust="spacing" textLength="260.3945" x="265.7966" y="22.9951">Todos App &#8209; Component Diagram</text></g><!--entity TodoList--><g class="entity" data-entity="TodoList" data-source-line="5" data-uid="ent0002" id="entity_TodoList"><rect fill="#F1F1F1" height="36.2969" rx="2.5" ry="2.5" style="stroke:#181818;stroke-width:0.5;" width="160.3213" x="280" y="44.2969"/><text fill="#000000" font-family="sans-serif" font-size="14" lengthAdjust="spacing" textLength="140.3213" x="290" y="67.292">TodoListComponent</text></g><!--entity TodoForm--><g class="entity" data-entity="TodoForm" data-source-line="6" data-uid="ent0003" id="entity_TodoForm"><rect fill="#F1F1F1" height="36.2969" rx="2.5" ry="2.5" style="stroke:#181818;stroke-width:0.5;" width="171.8604" x="297" y="270.2969"/><text fill="#000000" font-family="sans-serif" font-size="14" lengthAdjust="spacing" textLength="151.8604" x="307" y="293.292">TodoFormComponent</text></g><!--entity SectionWrapper--><g class="entity" data-entity="SectionWrapper" data-source-line="7" data-uid="ent0004" id="entity_SectionWrapper"><rect fill="#F1F1F1" height="36.2969" rx="2.5" ry="2.5" style="stroke:#181818;stroke-width:0.5;" width="213.6143" x="7" y="157.2969"/><text fill="#000000" font-family="sans-serif" font-size="14" lengthAdjust="spacing" textLength="193.6143" x="17" y="180.292">SectionWrapperComponent</text></g><!--entity TodoItem--><g class="entity" data-entity="TodoItem" data-source-line="8" data-uid="ent0005" id="entity_TodoItem"><rect fill="#F1F1F1" height="36.2969" rx="2.5" ry="2.5" style="stroke:#181818;stroke-width:0.5;" width="167.7178" x="256" y="157.2969"/><text fill="#000000" font-family="sans-serif" font-size="14" lengthAdjust="spacing" textLength="147.7178" x="266" y="180.292">TodoItemComponent</text></g><!--entity TodoService--><g class="entity" data-entity="TodoService" data-source-line="9" data-uid="ent0006" id="entity_TodoService"><rect fill="#F1F1F1" height="36.2969" rx="2.5" ry="2.5" style="stroke:#181818;stroke-width:0.5;" width="106.3105" x="565" y="383.2969"/><text fill="#000000" font-family="sans-serif" font-size="14" lengthAdjust="spacing" textLength="86.3105" x="575" y="406.292">TodoService</text></g><!--entity Store--><g class="entity" data-entity="Store" data-source-line="10" data-uid="ent0007" id="entity_Store"><rect fill="#F1F1F1" height="36.2969" rx="2.5" ry="2.5" style="stroke:#181818;stroke-width:0.5;" width="110.0566" x="563" y="496.2969"/><text fill="#000000" font-family="sans-serif" font-size="14" lengthAdjust="spacing" textLength="90.0566" x="573" y="519.292">Store (NgRx)</text></g><!--link TodoList to SectionWrapper--><g class="link" data-entity-1="TodoList" data-entity-2="SectionWrapper" data-source-line="12" data-uid="lnk8" id="link_TodoList_SectionWrapper"><path d="M334.1,80.3069 C312.28,94.1469 279.93,113.5769 250,127.2969 C224.79,138.8569 201.5847,147.3677 176.9147,155.4077" fill="none" id="TodoList-to-SectionWrapper" style="stroke:#181818;stroke-width:1;"/><polygon fill="#181818" points="171.21,157.2669,181.0065,158.2812,175.9639,155.7176,178.5276,150.675,171.21,157.2669" style="stroke:#181818;stroke-width:1;"/><text fill="#000000" font-family="sans-serif" font-size="13" lengthAdjust="spacing" textLength="29.7832" x="282" y="123.3638">uses</text></g><!--link SectionWrapper to TodoList--><g class="link" data-entity-1="SectionWrapper" data-entity-2="TodoList" data-source-line="21" data-uid="lnk16" id="link_SectionWrapper_TodoList"><path d="M84.3,157.0569 C65.7,144.1069 47.59,125.9769 61,110.2969 C88.66,77.9469 195.0548,67.9565 273.8548,64.8065" fill="none" id="SectionWrapper-to-TodoList" style="stroke:#181818;stroke-width:1;"/><polygon fill="#181818" points="279.85,64.5669,270.6974,60.9296,274.854,64.7666,271.017,68.9232,279.85,64.5669" style="stroke:#181818;stroke-width:1;"/><text fill="#000000" font-family="sans-serif" font-size="13" lengthAdjust="spacing" textLength="179.5244" x="62" y="123.3638">navigate from form context</text></g><!--link TodoForm to SectionWrapper--><g class="link" data-entity-1="TodoForm" data-entity-2="SectionWrapper" data-source-line="13" data-uid="lnk9" id="link_TodoForm_SectionWrapper"><path d="M296.68,272.9069 C264.69,265.6469 228.74,255.1369 198,240.2969 C172.91,228.1769 152.4598,211.9007 136.3598,197.4107" fill="none" id="TodoForm-to-SectionWrapper" style="stroke:#181818;stroke-width:1;"/><polygon fill="#181818" points="131.9,193.3969,135.9138,202.3907,135.6165,196.7417,141.2655,196.4444,131.9,193.3969" style="stroke:#181818;stroke-width:1;"/><text fill="#000000" font-family="sans-serif" font-size="13" lengthAdjust="spacing" textLength="29.7832" x="199" y="236.3638">uses</text></g><!--link SectionWrapper to TodoForm--><g class="link" data-entity-1="SectionWrapper" data-entity-2="TodoForm" data-source-line="20" data-uid="lnk15" id="link_SectionWrapper_TodoForm"><path d="M157.91,193.3169 C180.42,202.1169 208.24,213.1269 233,223.2969 C270.84,238.8369 308.2536,254.8438 338.4536,267.9138" fill="none" id="SectionWrapper-to-TodoForm" style="stroke:#181818;stroke-width:1;"/><polygon fill="#181818" points="343.96,270.2969,337.2891,263.0513,339.3713,268.311,334.1116,270.3932,343.96,270.2969" style="stroke:#181818;stroke-width:1;"/><text fill="#000000" font-family="sans-serif" font-size="13" lengthAdjust="spacing" textLength="168.0796" x="271" y="236.3638">navigate from list context</text></g><!--link TodoList to TodoItem--><g class="link" data-entity-1="TodoList" data-entity-2="TodoItem" data-source-line="15" data-uid="lnk10" id="link_TodoList_TodoItem"><path d="M356.88,80.6369 C353.12,101.4969 347.9146,130.3721 344.1646,151.1721" fill="none" id="TodoList-to-TodoItem" style="stroke:#181818;stroke-width:1;"/><polygon fill="#181818" points="343.1,157.0769,348.6334,148.9294,343.9871,152.1562,340.7603,147.51,343.1,157.0769" style="stroke:#181818;stroke-width:1;"/><text fill="#000000" font-family="sans-serif" font-size="13" lengthAdjust="spacing" textLength="90.6445" x="352" y="123.3638">renders many</text></g><!--link TodoList to TodoService--><g class="link" data-entity-1="TodoList" data-entity-2="TodoService" data-source-line="16" data-uid="lnk11" id="link_TodoList_TodoService"><path d="M440.27,74.9569 C527.94,89.5269 659.94,117.4769 690,157.2969 C744.08,228.9369 669.9908,336.0157 636.1408,378.4657" fill="none" id="TodoList-to-TodoService" style="stroke:#181818;stroke-width:1;"/><polygon fill="#181818" points="632.4,383.1569,641.1386,378.614,635.5173,379.2476,634.8837,373.6263,632.4,383.1569" style="stroke:#181818;stroke-width:1;"/><text fill="#000000" font-family="sans-serif" font-size="13" lengthAdjust="spacing" textLength="88.9878" x="709" y="236.3638">interacts with</text></g><!--link TodoForm to TodoService--><g class="link" data-entity-1="TodoForm" data-entity-2="TodoService" data-source-line="17" data-uid="lnk12" id="link_TodoForm_TodoService"><path d="M419.2,306.3969 C463.36,327.2569 532.1549,359.7441 576.3349,380.6141" fill="none" id="TodoForm-to-TodoService" style="stroke:#181818;stroke-width:1;"/><polygon fill="#181818" points="581.76,383.1769,575.3308,375.716,577.239,381.0412,571.9138,382.9495,581.76,383.1769" style="stroke:#181818;stroke-width:1;"/><text fill="#000000" font-family="sans-serif" font-size="13" lengthAdjust="spacing" textLength="88.9878" x="515" y="349.3638">interacts with</text></g><!--link TodoService to Store--><g class="link" data-entity-1="TodoService" data-entity-2="Store" data-source-line="18" data-uid="lnk13" id="link_TodoService_Store"><path d="M618,419.6369 C618,440.4969 618,469.2769 618,490.0769" fill="none" id="TodoService-to-Store" style="stroke:#181818;stroke-width:1;"/><polygon fill="#181818" points="618,496.0769,622,487.0769,618,491.0769,614,487.0769,618,496.0769" style="stroke:#181818;stroke-width:1;"/><text fill="#000000" font-family="sans-serif" font-size="13" lengthAdjust="spacing" textLength="80.1709" x="619" y="462.3638">reads/writes</text></g><!--link TodoForm to TodoList--><g class="link" data-entity-1="TodoForm" data-entity-2="TodoList" data-source-line="19" data-uid="lnk14" id="link_TodoForm_TodoList"><path d="M418.41,270.1469 C429.93,262.6769 441.43,252.7369 448,240.2969 C538.39,69.0469 465.23,133.6569 451,110.2969 C442.95,97.0869 435.2194,90.1443 421.4394,83.1443" fill="none" id="TodoForm-to-TodoList" style="stroke:#181818;stroke-width:1;"/><polygon fill="#181818" points="416.09,80.4269,422.3025,88.0692,420.5478,82.6914,425.9257,80.9367,416.09,80.4269" style="stroke:#181818;stroke-width:1;"/><text fill="#000000" font-family="sans-serif" font-size="13" lengthAdjust="spacing" textLength="194.3145" x="487" y="179.8638">navigates on save/edit/cancel</text></g><!--SRC=[XO-zJiCm4CTtFyMf4mnLzWv828I4X1W84lF9kGQBnBREHzfkl0Alo9DWft4WBX-RVVVxVvmOwGWUNUC2N7eF7s_lSELwxonPWMk3BMElL7WnrcDyWixBMWvHoQG5RTkHKlC6LidlpWIPdLQ00VAq96ySzwTacdudwvXad7rYz9vuoIztfV-jq0_-QLgIDV5WDCtCz5_K4CS4P_Vjm_xyc9q6IkNZOBs-AFh01bu31PMl-WDPskIQSSja6-80FTh3AJJrZ9onGenQ0koCF2yZ_oNpSkmttfc2iGdLZesK5ymjDc1nC2r60fo5W0DLr1YfD5fDdIfEpThHw4iBMtOzTCbGkzXjBxy9Yz2ZS9lS9k4d]--></g></svg>