<svg xmlns="http://www.w3.org/2000/svg" xmlns:xlink="http://www.w3.org/1999/xlink" contentStyleType="text/css" data-diagram-type="SEQUENCE" height="1075px" preserveAspectRatio="none" style="width:1316px;height:1075px;background:#FFFFFF;" version="1.1" viewBox="0 0 1316 1075" width="1316px" zoomAndPan="magnify"><title>Todos App &#8212; Full Interaction Flow</title><defs/><g><text fill="#000000" font-family="sans-serif" font-size="14" font-weight="bold" lengthAdjust="spacing" textLength="269.5205" x="519.4875" y="27.9951">Todos App &#8212; Full Interaction Flow</text><g><title>User</title><rect fill="#000000" fill-opacity="0.00000" height="876.5859" width="8" x="19.9551" y="118.5938"/><line style="stroke:#181818;stroke-width:0.5;stroke-dasharray:5,5;" x1="23" x2="23" y1="118.5938" y2="995.1797"/></g><g><title>TodoListComponent</title><rect fill="#000000" fill-opacity="0.00000" height="876.5859" width="8" x="126.0708" y="118.5938"/><line style="stroke:#181818;stroke-width:0.5;stroke-dasharray:5,5;" x1="129.9102" x2="129.9102" y1="118.5938" y2="995.1797"/></g><g><title>SectionWrapperComponent</title><rect fill="#000000" fill-opacity="0.00000" height="876.5859" width="8" x="317.0386" y="118.5938"/><line style="stroke:#181818;stroke-width:0.5;stroke-dasharray:5,5;" x1="320.2314" x2="320.2314" y1="118.5938" y2="995.1797"/></g><g><title>TodoItemComponent</title><rect fill="#000000" fill-opacity="0.00000" height="876.5859" width="8" x="511.7046" y="118.5938"/><line style="stroke:#181818;stroke-width:0.5;stroke-dasharray:5,5;" x1="514.8457" x2="514.8457" y1="118.5938" y2="995.1797"/></g><g><title>TodoFormComponent</title><rect fill="#000000" fill-opacity="0.00000" height="876.5859" width="8" x="685.4937" y="118.5938"/><line style="stroke:#181818;stroke-width:0.5;stroke-dasharray:5,5;" x1="688.5635" x2="688.5635" y1="118.5938" y2="995.1797"/></g><g><title>SectionWrapperComponent</title><rect fill="#000000" fill-opacity="0.00000" height="876.5859" width="8" x="882.231" y="118.5938"/><line style="stroke:#181818;stroke-width:0.5;stroke-dasharray:5,5;" x1="885.4238" x2="885.4238" y1="118.5938" y2="995.1797"/></g><g><title>TodoService</title><rect fill="#000000" fill-opacity="0.00000" height="876.5859" width="8" x="1046.1934" y="118.5938"/><line style="stroke:#181818;stroke-width:0.5;stroke-dasharray:5,5;" x1="1050.0381" x2="1050.0381" y1="118.5938" y2="995.1797"/></g><g><title>Store .NgRx.</title><rect fill="#000000" fill-opacity="0.00000" height="876.5859" width="8" x="1248.4673" y="118.5938"/><line style="stroke:#181818;stroke-width:0.5;stroke-dasharray:5,5;" x1="1252.439" x2="1252.439" y1="118.5938" y2="995.1797"/></g><g class="participant participant-head" data-participant="User"><text fill="#000000" font-family="sans-serif" font-size="14" lengthAdjust="spacing" textLength="31.9102" x="5" y="115.292">User</text><ellipse cx="23.9551" cy="50.7969" fill="#E2E2F0" rx="8" ry="8" style="stroke:#181818;stroke-width:0.5;"/><path d="M23.9551,58.7969 L23.9551,85.7969 M10.9551,66.7969 L36.9551,66.7969 M23.9551,85.7969 L10.9551,100.7969 M23.9551,85.7969 L36.9551,100.7969" fill="none" style="stroke:#181818;stroke-width:0.5;"/></g><g class="participant participant-tail" data-participant="User"><text fill="#000000" font-family="sans-serif" font-size="14" lengthAdjust="spacing" textLength="31.9102" x="5" y="1007.1748">User</text><ellipse cx="23.9551" cy="1018.9766" fill="#E2E2F0" rx="8" ry="8" style="stroke:#181818;stroke-width:0.5;"/><path d="M23.9551,1026.9766 L23.9551,1053.9766 M10.9551,1034.9766 L36.9551,1034.9766 M23.9551,1053.9766 L10.9551,1068.9766 M23.9551,1053.9766 L36.9551,1068.9766" fill="none" style="stroke:#181818;stroke-width:0.5;"/></g><g class="participant participant-head" data-participant="TodoList"><rect fill="#E2E2F0" height="30.2969" rx="2.5" ry="2.5" style="stroke:#181818;stroke-width:0.5;" width="154.3213" x="52.9102" y="87.2969"/><text fill="#000000" font-family="sans-serif" font-size="14" lengthAdjust="spacing" textLength="140.3213" x="59.9102" y="107.292">TodoListComponent</text></g><g class="participant participant-tail" data-participant="TodoList"><rect fill="#E2E2F0" height="30.2969" rx="2.5" ry="2.5" style="stroke:#181818;stroke-width:0.5;" width="154.3213" x="52.9102" y="994.1797"/><text fill="#000000" font-family="sans-serif" font-size="14" lengthAdjust="spacing" textLength="140.3213" x="59.9102" y="1014.1748">TodoListComponent</text></g><g class="participant participant-head" data-participant="SectionWrapperList"><rect fill="#E2E2F0" height="30.2969" rx="2.5" ry="2.5" style="stroke:#181818;stroke-width:0.5;" width="207.6143" x="217.2314" y="87.2969"/><text fill="#000000" font-family="sans-serif" font-size="14" lengthAdjust="spacing" textLength="193.6143" x="224.2314" y="107.292">SectionWrapperComponent</text></g><g class="participant participant-tail" data-participant="SectionWrapperList"><rect fill="#E2E2F0" height="30.2969" rx="2.5" ry="2.5" style="stroke:#181818;stroke-width:0.5;" width="207.6143" x="217.2314" y="994.1797"/><text fill="#000000" font-family="sans-serif" font-size="14" lengthAdjust="spacing" textLength="193.6143" x="224.2314" y="1014.1748">SectionWrapperComponent</text></g><g class="participant participant-head" data-participant="TodoItem"><rect fill="#E2E2F0" height="30.2969" rx="2.5" ry="2.5" style="stroke:#181818;stroke-width:0.5;" width="161.7178" x="434.8457" y="87.2969"/><text fill="#000000" font-family="sans-serif" font-size="14" lengthAdjust="spacing" textLength="147.7178" x="441.8457" y="107.292">TodoItemComponent</text></g><g class="participant participant-tail" data-participant="TodoItem"><rect fill="#E2E2F0" height="30.2969" rx="2.5" ry="2.5" style="stroke:#181818;stroke-width:0.5;" width="161.7178" x="434.8457" y="994.1797"/><text fill="#000000" font-family="sans-serif" font-size="14" lengthAdjust="spacing" textLength="147.7178" x="441.8457" y="1014.1748">TodoItemComponent</text></g><g class="participant participant-head" data-participant="TodoForm"><rect fill="#E2E2F0" height="30.2969" rx="2.5" ry="2.5" style="stroke:#181818;stroke-width:0.5;" width="165.8604" x="606.5635" y="87.2969"/><text fill="#000000" font-family="sans-serif" font-size="14" lengthAdjust="spacing" textLength="151.8604" x="613.5635" y="107.292">TodoFormComponent</text></g><g class="participant participant-tail" data-participant="TodoForm"><rect fill="#E2E2F0" height="30.2969" rx="2.5" ry="2.5" style="stroke:#181818;stroke-width:0.5;" width="165.8604" x="606.5635" y="994.1797"/><text fill="#000000" font-family="sans-serif" font-size="14" lengthAdjust="spacing" textLength="151.8604" x="613.5635" y="1014.1748">TodoFormComponent</text></g><g class="participant participant-head" data-participant="SectionWrapperForm"><rect fill="#E2E2F0" height="30.2969" rx="2.5" ry="2.5" style="stroke:#181818;stroke-width:0.5;" width="207.6143" x="782.4238" y="87.2969"/><text fill="#000000" font-family="sans-serif" font-size="14" lengthAdjust="spacing" textLength="193.6143" x="789.4238" y="107.292">SectionWrapperComponent</text></g><g class="participant participant-tail" data-participant="SectionWrapperForm"><rect fill="#E2E2F0" height="30.2969" rx="2.5" ry="2.5" style="stroke:#181818;stroke-width:0.5;" width="207.6143" x="782.4238" y="994.1797"/><text fill="#000000" font-family="sans-serif" font-size="14" lengthAdjust="spacing" textLength="193.6143" x="789.4238" y="1014.1748">SectionWrapperComponent</text></g><g class="participant participant-head" data-participant="TodoService"><rect fill="#E2E2F0" height="30.2969" rx="2.5" ry="2.5" style="stroke:#181818;stroke-width:0.5;" width="100.3105" x="1000.0381" y="87.2969"/><text fill="#000000" font-family="sans-serif" font-size="14" lengthAdjust="spacing" textLength="86.3105" x="1007.0381" y="107.292">TodoService</text></g><g class="participant participant-tail" data-participant="TodoService"><rect fill="#E2E2F0" height="30.2969" rx="2.5" ry="2.5" style="stroke:#181818;stroke-width:0.5;" width="100.3105" x="1000.0381" y="994.1797"/><text fill="#000000" font-family="sans-serif" font-size="14" lengthAdjust="spacing" textLength="86.3105" x="1007.0381" y="1014.1748">TodoService</text></g><g class="participant participant-head" data-participant="Store"><rect fill="#E2E2F0" height="30.2969" rx="2.5" ry="2.5" style="stroke:#181818;stroke-width:0.5;" width="104.0566" x="1200.439" y="87.2969"/><text fill="#000000" font-family="sans-serif" font-size="14" lengthAdjust="spacing" textLength="90.0566" x="1207.439" y="107.292">Store (NgRx)</text></g><g class="participant participant-tail" data-participant="Store"><rect fill="#E2E2F0" height="30.2969" rx="2.5" ry="2.5" style="stroke:#181818;stroke-width:0.5;" width="104.0566" x="1200.439" y="994.1797"/><text fill="#000000" font-family="sans-serif" font-size="14" lengthAdjust="spacing" textLength="90.0566" x="1207.439" y="1014.1748">Store (NgRx)</text></g><rect fill="#EEEEEE" height="3" style="stroke:#EEEEEE;stroke-width:1;" width="1309.4956" x="0" y="149.1602"/><line style="stroke:#000000;stroke-width:1;" x1="0" x2="1309.4956" y1="149.1602" y2="149.1602"/><line style="stroke:#000000;stroke-width:1;" x1="0" x2="1309.4956" y1="152.1602" y2="152.1602"/><rect fill="#EEEEEE" height="23.1328" style="stroke:#000000;stroke-width:2;" width="148.6655" x="580.415" y="138.5938"/><text fill="#000000" font-family="sans-serif" font-size="13" font-weight="bold" lengthAdjust="spacing" textLength="130.1396" x="586.415" y="154.6606">Viewing Todo List</text><g class="message" data-participant-1="User" data-participant-2="TodoList"><polygon fill="#181818" points="118.0708,188.8594,128.0708,192.8594,118.0708,196.8594,122.0708,192.8594" style="stroke:#181818;stroke-width:1;"/><line style="stroke:#181818;stroke-width:1;" x1="23.9551" x2="124.0708" y1="192.8594" y2="192.8594"/><text fill="#000000" font-family="sans-serif" font-size="13" lengthAdjust="spacing" textLength="69.0435" x="30.9551" y="187.7935">open page</text></g><g class="message" data-participant-1="TodoList" data-participant-2="TodoService"><polygon fill="#181818" points="1038.1934,217.9922,1048.1934,221.9922,1038.1934,225.9922,1042.1934,221.9922" style="stroke:#181818;stroke-width:1;"/><line style="stroke:#181818;stroke-width:1;" x1="130.0708" x2="1044.1934" y1="221.9922" y2="221.9922"/><text fill="#000000" font-family="sans-serif" font-size="13" lengthAdjust="spacing" textLength="89.8638" x="137.0708" y="216.9263">request todos</text></g><g class="message" data-participant-1="TodoService" data-participant-2="Store"><polygon fill="#181818" points="1240.4673,247.125,1250.4673,251.125,1240.4673,255.125,1244.4673,251.125" style="stroke:#181818;stroke-width:1;"/><line style="stroke:#181818;stroke-width:1;" x1="1050.1934" x2="1246.4673" y1="251.125" y2="251.125"/><text fill="#000000" font-family="sans-serif" font-size="13" lengthAdjust="spacing" textLength="98.5728" x="1057.1934" y="246.0591">get todos state</text></g><g class="message" data-participant-1="Store" data-participant-2="TodoService"><polygon fill="#181818" points="1061.1934,276.2578,1051.1934,280.2578,1061.1934,284.2578,1057.1934,280.2578" style="stroke:#181818;stroke-width:1;"/><line style="stroke:#181818;stroke-width:1;stroke-dasharray:2,2;" x1="1055.1934" x2="1251.4673" y1="280.2578" y2="280.2578"/><text fill="#000000" font-family="sans-serif" font-size="13" lengthAdjust="spacing" textLength="59.2554" x="1067.1934" y="275.1919">todos list</text></g><g class="message" data-participant-1="TodoService" data-participant-2="TodoList"><polygon fill="#181818" points="141.0708,305.3906,131.0708,309.3906,141.0708,313.3906,137.0708,309.3906" style="stroke:#181818;stroke-width:1;"/><line style="stroke:#181818;stroke-width:1;stroke-dasharray:2,2;" x1="135.0708" x2="1049.1934" y1="309.3906" y2="309.3906"/><text fill="#000000" font-family="sans-serif" font-size="13" lengthAdjust="spacing" textLength="84.6714" x="147.0708" y="304.3247">deliver todos</text></g><g class="message" data-participant-1="TodoList" data-participant-2="TodoItem"><polygon fill="#181818" points="503.7046,334.5234,513.7046,338.5234,503.7046,342.5234,507.7046,338.5234" style="stroke:#181818;stroke-width:1;"/><line style="stroke:#181818;stroke-width:1;" x1="130.0708" x2="509.7046" y1="338.5234" y2="338.5234"/><text fill="#000000" font-family="sans-serif" font-size="13" lengthAdjust="spacing" textLength="112.0488" x="137.0708" y="333.4575">render each todo</text></g><rect fill="#EEEEEE" height="3" style="stroke:#EEEEEE;stroke-width:1;" width="1309.4956" x="0" y="367.0898"/><line style="stroke:#000000;stroke-width:1;" x1="0" x2="1309.4956" y1="367.0898" y2="367.0898"/><line style="stroke:#000000;stroke-width:1;" x1="0" x2="1309.4956" y1="370.0898" y2="370.0898"/><rect fill="#EEEEEE" height="23.1328" style="stroke:#000000;stroke-width:2;" width="225.4531" x="542.0212" y="356.5234"/><text fill="#000000" font-family="sans-serif" font-size="13" font-weight="bold" lengthAdjust="spacing" textLength="206.9272" x="548.0212" y="372.5903">Navigating to Add/Edit Todo</text><g class="message" data-participant-1="User" data-participant-2="SectionWrapperList"><polygon fill="#181818" points="309.0386,406.7891,319.0386,410.7891,309.0386,414.7891,313.0386,410.7891" style="stroke:#181818;stroke-width:1;"/><line style="stroke:#181818;stroke-width:1;" x1="23.9551" x2="315.0386" y1="410.7891" y2="410.7891"/><text fill="#000000" font-family="sans-serif" font-size="13" lengthAdjust="spacing" textLength="136.3223" x="30.9551" y="405.7231">click "Add/Edit Todo"</text></g><g class="message" data-participant-1="SectionWrapperList" data-participant-2="TodoForm"><polygon fill="#181818" points="677.4937,435.9219,687.4937,439.9219,677.4937,443.9219,681.4937,439.9219" style="stroke:#181818;stroke-width:1;"/><line style="stroke:#181818;stroke-width:1;" x1="321.0386" x2="683.4937" y1="439.9219" y2="439.9219"/><text fill="#000000" font-family="sans-serif" font-size="13" lengthAdjust="spacing" textLength="143.6792" x="328.0386" y="434.856">navigate to TodoForm</text></g><rect fill="#EEEEEE" height="3" style="stroke:#EEEEEE;stroke-width:1;" width="1309.4956" x="0" y="468.4883"/><line style="stroke:#000000;stroke-width:1;" x1="0" x2="1309.4956" y1="468.4883" y2="468.4883"/><line style="stroke:#000000;stroke-width:1;" x1="0" x2="1309.4956" y1="471.4883" y2="471.4883"/><rect fill="#EEEEEE" height="23.1328" style="stroke:#000000;stroke-width:2;" width="214.5605" x="547.4675" y="457.9219"/><text fill="#000000" font-family="sans-serif" font-size="13" font-weight="bold" lengthAdjust="spacing" textLength="196.0347" x="553.4675" y="473.9888">Interacting with TodoForm</text><g class="message" data-participant-1="User" data-participant-2="TodoForm"><polygon fill="#181818" points="677.4937,508.1875,687.4937,512.1875,677.4937,516.1875,681.4937,512.1875" style="stroke:#181818;stroke-width:1;"/><line style="stroke:#181818;stroke-width:1;" x1="23.9551" x2="683.4937" y1="512.1875" y2="512.1875"/><text fill="#000000" font-family="sans-serif" font-size="13" lengthAdjust="spacing" textLength="79.4219" x="30.9551" y="507.1216">fill/edit form</text></g><g class="message" data-participant-1="User" data-participant-2="SectionWrapperForm"><polygon fill="#181818" points="874.231,537.3203,884.231,541.3203,874.231,545.3203,878.231,541.3203" style="stroke:#181818;stroke-width:1;"/><line style="stroke:#181818;stroke-width:1;" x1="23.9551" x2="880.231" y1="541.3203" y2="541.3203"/><text fill="#000000" font-family="sans-serif" font-size="13" lengthAdjust="spacing" textLength="139.6675" x="30.9551" y="536.2544">interact (e.g., cancel)</text></g><g class="message" data-participant-1="SectionWrapperForm" data-participant-2="TodoList"><polygon fill="#181818" points="141.0708,566.4531,131.0708,570.4531,141.0708,574.4531,137.0708,570.4531" style="stroke:#181818;stroke-width:1;"/><line style="stroke:#181818;stroke-width:1;" x1="135.0708" x2="885.231" y1="570.4531" y2="570.4531"/><text fill="#000000" font-family="sans-serif" font-size="13" lengthAdjust="spacing" textLength="167.9907" x="147.0708" y="565.3872">navigate back to TodoList</text></g><rect fill="#EEEEEE" height="3" style="stroke:#EEEEEE;stroke-width:1;" width="1309.4956" x="0" y="599.0195"/><line style="stroke:#000000;stroke-width:1;" x1="0" x2="1309.4956" y1="599.0195" y2="599.0195"/><line style="stroke:#000000;stroke-width:1;" x1="0" x2="1309.4956" y1="602.0195" y2="602.0195"/><rect fill="#EEEEEE" height="23.1328" style="stroke:#000000;stroke-width:2;" width="200.2783" x="554.6086" y="588.4531"/><text fill="#000000" font-family="sans-serif" font-size="13" font-weight="bold" lengthAdjust="spacing" textLength="181.7524" x="560.6086" y="604.52">Saving or Updating Todo</text><g class="message" data-participant-1="User" data-participant-2="TodoForm"><polygon fill="#181818" points="677.4937,638.7188,687.4937,642.7188,677.4937,646.7188,681.4937,642.7188" style="stroke:#181818;stroke-width:1;"/><line style="stroke:#181818;stroke-width:1;" x1="23.9551" x2="683.4937" y1="642.7188" y2="642.7188"/><text fill="#000000" font-family="sans-serif" font-size="13" lengthAdjust="spacing" textLength="113.7944" x="30.9551" y="637.6528">click save/update</text></g><g class="message" data-participant-1="TodoForm" data-participant-2="TodoService"><polygon fill="#181818" points="1038.1934,667.8516,1048.1934,671.8516,1038.1934,675.8516,1042.1934,671.8516" style="stroke:#181818;stroke-width:1;"/><line style="stroke:#181818;stroke-width:1;" x1="689.4937" x2="1044.1934" y1="671.8516" y2="671.8516"/><text fill="#000000" font-family="sans-serif" font-size="13" lengthAdjust="spacing" textLength="114.0039" x="696.4937" y="666.7856">save/update todo</text></g><g class="message" data-participant-1="TodoService" data-participant-2="Store"><polygon fill="#181818" points="1240.4673,696.9844,1250.4673,700.9844,1240.4673,704.9844,1244.4673,700.9844" style="stroke:#181818;stroke-width:1;"/><line style="stroke:#181818;stroke-width:1;" x1="1050.1934" x2="1246.4673" y1="700.9844" y2="700.9844"/><text fill="#000000" font-family="sans-serif" font-size="13" lengthAdjust="spacing" textLength="178.2739" x="1057.1934" y="695.9185">dispatch add/update action</text></g><g class="message" data-participant-1="Store" data-participant-2="TodoService"><polygon fill="#181818" points="1061.1934,726.1172,1051.1934,730.1172,1061.1934,734.1172,1057.1934,730.1172" style="stroke:#181818;stroke-width:1;"/><line style="stroke:#181818;stroke-width:1;stroke-dasharray:2,2;" x1="1055.1934" x2="1251.4673" y1="730.1172" y2="730.1172"/><text fill="#000000" font-family="sans-serif" font-size="13" lengthAdjust="spacing" textLength="91.1206" x="1067.1934" y="725.0513">updated state</text></g><g class="message" data-participant-1="TodoService" data-participant-2="TodoForm"><polygon fill="#181818" points="700.4937,755.25,690.4937,759.25,700.4937,763.25,696.4937,759.25" style="stroke:#181818;stroke-width:1;"/><line style="stroke:#181818;stroke-width:1;stroke-dasharray:2,2;" x1="694.4937" x2="1049.1934" y1="759.25" y2="759.25"/><text fill="#000000" font-family="sans-serif" font-size="13" lengthAdjust="spacing" textLength="81.4595" x="706.4937" y="754.1841">return result</text></g><g class="message" data-participant-1="TodoForm" data-participant-2="TodoList"><polygon fill="#181818" points="141.0708,784.3828,131.0708,788.3828,141.0708,792.3828,137.0708,788.3828" style="stroke:#181818;stroke-width:1;"/><line style="stroke:#181818;stroke-width:1;" x1="135.0708" x2="688.4937" y1="788.3828" y2="788.3828"/><text fill="#000000" font-family="sans-serif" font-size="13" lengthAdjust="spacing" textLength="132.2598" x="147.0708" y="783.3169">navigate back to list</text></g><rect fill="#EEEEEE" height="3" style="stroke:#EEEEEE;stroke-width:1;" width="1309.4956" x="0" y="816.9492"/><line style="stroke:#000000;stroke-width:1;" x1="0" x2="1309.4956" y1="816.9492" y2="816.9492"/><line style="stroke:#000000;stroke-width:1;" x1="0" x2="1309.4956" y1="819.9492" y2="819.9492"/><rect fill="#EEEEEE" height="23.1328" style="stroke:#000000;stroke-width:2;" width="170.0254" x="569.7351" y="806.3828"/><text fill="#000000" font-family="sans-serif" font-size="13" font-weight="bold" lengthAdjust="spacing" textLength="151.4995" x="575.7351" y="822.4497">Refreshing Todo List</text><g class="message" data-participant-1="TodoList" data-participant-2="TodoService"><polygon fill="#181818" points="1038.1934,856.6484,1048.1934,860.6484,1038.1934,864.6484,1042.1934,860.6484" style="stroke:#181818;stroke-width:1;"/><line style="stroke:#181818;stroke-width:1;" x1="130.0708" x2="1044.1934" y1="860.6484" y2="860.6484"/><text fill="#000000" font-family="sans-serif" font-size="13" lengthAdjust="spacing" textLength="148.2495" x="137.0708" y="855.5825">reload todos (optional)</text></g><g class="message" data-participant-1="TodoService" data-participant-2="Store"><polygon fill="#181818" points="1240.4673,885.7813,1250.4673,889.7813,1240.4673,893.7813,1244.4673,889.7813" style="stroke:#181818;stroke-width:1;"/><line style="stroke:#181818;stroke-width:1;" x1="1050.1934" x2="1246.4673" y1="889.7813" y2="889.7813"/><text fill="#000000" font-family="sans-serif" font-size="13" lengthAdjust="spacing" textLength="119.6978" x="1057.1934" y="884.7153">get updated todos</text></g><g class="message" data-participant-1="Store" data-participant-2="TodoService"><polygon fill="#181818" points="1061.1934,914.9141,1051.1934,918.9141,1061.1934,922.9141,1057.1934,918.9141" style="stroke:#181818;stroke-width:1;"/><line style="stroke:#181818;stroke-width:1;stroke-dasharray:2,2;" x1="1055.1934" x2="1251.4673" y1="918.9141" y2="918.9141"/><text fill="#000000" font-family="sans-serif" font-size="13" lengthAdjust="spacing" textLength="59.2554" x="1067.1934" y="913.8481">todos list</text></g><g class="message" data-participant-1="TodoService" data-participant-2="TodoList"><polygon fill="#181818" points="141.0708,944.0469,131.0708,948.0469,141.0708,952.0469,137.0708,948.0469" style="stroke:#181818;stroke-width:1;"/><line style="stroke:#181818;stroke-width:1;stroke-dasharray:2,2;" x1="135.0708" x2="1049.1934" y1="948.0469" y2="948.0469"/><text fill="#000000" font-family="sans-serif" font-size="13" lengthAdjust="spacing" textLength="142.8604" x="147.0708" y="942.981">deliver updated todos</text></g><g class="message" data-participant-1="TodoList" data-participant-2="TodoItem"><polygon fill="#181818" points="503.7046,973.1797,513.7046,977.1797,503.7046,981.1797,507.7046,977.1797" style="stroke:#181818;stroke-width:1;"/><line style="stroke:#181818;stroke-width:1;" x1="130.0708" x2="509.7046" y1="977.1797" y2="977.1797"/><text fill="#000000" font-family="sans-serif" font-size="13" lengthAdjust="spacing" textLength="141.5273" x="137.0708" y="972.1138">render updated todos</text></g><!--SRC=[hLJ1Rjim3BthAuYSKc1jxWLIe1WMeC3GGzDkPyrY7A6gfCbqikC-Ob-uBwbeAOuLEpaKFGMc7XyV7ycG9eFmx9HhuDvx-F_t7wnQO-314WPPaNOMLiRjXOWVBi1BWq48BmFfIdjf2MQS_LqtzDMzUMVHqWna0uTeYLrZH_apIEynb1dbspYN6Hy8tyPrE3h6hboOm7Bqevh6kSounh3J5VOLylT9aMWUmlonVlfpbPWv8CHo2JyqxhMjkrpWjc6v5EmpND_rDi8jE8yMlAnHzC4Co1KZ9k3l5kC3yKJ5y2r2auPRg343e259A5ByUaIMC8O7KJ2LiXGQlOjYZoM7qdWqdIwh8WPbjUs0NUEFSgThITmxERXNQl5DQKe-32mOxqKah8okNc5M9Ct413JhuD75D9jA8XViju6rzFiUnUmrROz99yF8H1jjp0AvyeOffhLchCxSCCUR-kOBLD9MQAx41BYqjbVxIyPci-JkC5ZoEhv6jNoKNYKRJwqR24w6DNA7YvRXQOk6HO-37w3IjCuiajADbnH7AkCOCZxzPvpTgOHIUVEcrYhh3KXjiF6dQGsDj9upo1pCUS9DJDsExkhIwHWdLLxwkVFSXenJkd14XsRIwd_E6PMSby-fmBu3]--></g></svg>